<svg xmlns="http://www.w3.org/2000/svg" xmlns:xlink="http://www.w3.org/1999/xlink" width="1792" height="692pt" viewBox="0 0 1344.14 692"><g id="graph0" class="graph" transform="scale(1 1) rotate(0) translate(4 688)"><title>GG</title><polygon fill="#fff" stroke="transparent" points="-4 4 -4 -688 1340.139 -688 1340.139 4 -4 4"/><g id="node1" class="node"><title>node102</title><polygon fill="none" stroke="#000" points="80.485 -167.562 40.328 -180 .171 -167.562 .209 -147.438 80.448 -147.438 80.485 -167.562"/><text x="40.328" y="-158.9" fill="#000" font-family="Times,serif" font-size="12" text-anchor="middle">logging</text></g><g id="node2" class="node"><title>node21</title><polygon fill="none" stroke="#000" points="175.328 -108 134.494 -90 175.328 -72 216.162 -90 175.328 -108"/><text x="175.328" y="-86.9" fill="#000" font-family="Times,serif" font-size="12" text-anchor="middle">oehost</text></g><g id="edge1" class="edge"><title>node102-&gt;node21</title><path fill="none" stroke="#000" d="M67.6474,-147.4297C90.9416,-135.0061 124.2738,-117.2289 147.6659,-104.7532"/><polygon fill="#000" stroke="#000" points="149.54 -107.72 156.716 -99.926 146.246 -101.544 149.54 -107.72"/></g><g id="node3" class="node"><title>node2166</title><ellipse cx="240.328" cy="-18" fill="none" stroke="#000" rx="28.865" ry="18"/><text x="240.328" y="-14.9" fill="#000" font-family="Times,serif" font-size="12" text-anchor="middle">crypto</text></g><g id="edge2" class="edge"><title>node21-&gt;node2166</title><path fill="none" stroke="#000" stroke-dasharray="5 2" d="M187.2501,-76.7941C196.124,-66.9645 208.4751,-53.2833 219.0301,-41.5917"/><polygon fill="#000" stroke="#000" points="221.882 -43.655 225.986 -33.887 216.687 -38.964 221.882 -43.655"/></g><g id="node4" class="node"><title>node2167</title><ellipse cx="314.328" cy="-18" fill="none" stroke="#000" rx="27" ry="18"/><text x="314.328" y="-14.9" fill="#000" font-family="Times,serif" font-size="12" text-anchor="middle">dl</text></g><g id="edge3" class="edge"><title>node21-&gt;node2167</title><path fill="none" stroke="#000" stroke-dasharray="5 2" d="M194.364,-80.1397C217.3768,-68.2194 256.4051,-48.0033 283.6765,-33.8771"/><polygon fill="#000" stroke="#000" points="285.517 -36.865 292.787 -29.158 282.298 -30.65 285.517 -36.865"/></g><g id="node5" class="node"><title>node29</title><polygon fill="none" stroke="#000" points="449.828 -36 376.828 -36 376.828 0 449.828 0 449.828 -36"/><text x="413.328" y="-14.9" fill="#000" font-family="Times,serif" font-size="12" text-anchor="middle">oe_includes</text></g><g id="edge4" class="edge"><title>node21-&gt;node29</title><path fill="none" stroke="#000" d="M197.621,-81.6195C206.2344,-78.4751 216.1982,-74.951 225.3281,-72 228.7978,-70.8785 312.2858,-46.9406 366.8257,-31.3165"/><polygon fill="#000" stroke="#000" points="367.997 -34.622 376.647 -28.503 366.07 -27.892 367.997 -34.622"/></g><g id="node6" class="node"><title>node2136</title><polygon fill="none" stroke="#000" points="193.328 -36 129.328 -36 129.328 0 193.328 0 193.328 -36"/><text x="161.328" y="-14.9" fill="#000" font-family="Times,serif" font-size="12" text-anchor="middle">oedebugrt</text></g><g id="edge5" class="edge"><title>node21-&gt;node2136</title><path fill="none" stroke="#000" stroke-dasharray="5 2" d="M172.081,-73.3008C170.5082,-65.2118 168.5764,-55.2769 166.7862,-46.0702"/><polygon fill="#000" stroke="#000" points="170.196 -45.27 164.852 -36.122 163.325 -46.606 170.196 -45.27"/></g><g id="node7" class="node"><title>node2007</title><polygon fill="none" stroke="#000" points="502.828 -540 429.828 -540 429.828 -504 502.828 -504 502.828 -540"/><text x="466.328" y="-518.9" fill="#000" font-family="Times,serif" font-size="12" text-anchor="middle">mbedcrypto</text></g><g id="node8" class="node"><title>node2006</title><polygon fill="none" stroke="#000" points="466.328 -468 420.047 -450 466.328 -432 512.609 -450 466.328 -468"/><text x="466.328" y="-446.9" fill="#000" font-family="Times,serif" font-size="12" text-anchor="middle">mbedtls</text></g><g id="edge6" class="edge"><title>node2007-&gt;node2006</title><path fill="none" stroke="#000" stroke-dasharray="1 5" d="M466.3281,-503.8314C466.3281,-496.131 466.3281,-486.9743 466.3281,-478.4166"/><polygon fill="#000" stroke="#000" points="469.828 -478.413 466.328 -468.413 462.828 -478.413 469.828 -478.413"/></g><g id="node9" class="node"><title>node2003</title><polygon fill="none" stroke="#000" points="466.328 -396 408.171 -378 466.328 -360 524.485 -378 466.328 -396"/><text x="466.328" y="-374.9" fill="#000" font-family="Times,serif" font-size="12" text-anchor="middle">mbedx509</text></g><g id="edge7" class="edge"><title>node2006-&gt;node2003</title><path fill="none" stroke="#000" d="M466.3281,-431.8314C466.3281,-424.131 466.3281,-414.9743 466.3281,-406.4166"/><polygon fill="#000" stroke="#000" points="469.828 -406.413 466.328 -396.413 462.828 -406.413 469.828 -406.413"/></g><g id="node10" class="node"><title>node2005</title><polygon fill="none" stroke="#000" points="466.328 -324 376.49 -306 466.328 -288 556.166 -306 466.328 -324"/><text x="466.328" y="-302.9" fill="#000" font-family="Times,serif" font-size="12" text-anchor="middle">mbedcrypto_static</text></g><g id="edge8" class="edge"><title>node2003-&gt;node2005</title><path fill="none" stroke="#000" d="M466.3281,-359.8314C466.3281,-352.131 466.3281,-342.9743 466.3281,-334.4166"/><polygon fill="#000" stroke="#000" points="469.828 -334.413 466.328 -324.413 462.828 -334.413 469.828 -334.413"/></g><g id="edge9" class="edge"><title>node2005-&gt;node29</title><path fill="none" stroke="#000" d="M468.7015,-288.2944C473.3541,-248.3078 480.9656,-148.5383 453.3281,-72 449.7619,-62.124 443.7594,-52.5178 437.4743,-44.2124"/><polygon fill="#000" stroke="#000" points="440.169 -41.978 431.175 -36.379 434.714 -46.365 440.169 -41.978"/></g><g id="node11" class="node"><title>node2016</title><polygon fill="none" stroke="#000" points="673.328 -252 633.976 -234 673.328 -216 712.68 -234 673.328 -252"/><text x="673.328" y="-230.9" fill="#000" font-family="Times,serif" font-size="12" text-anchor="middle">oelibc</text></g><g id="edge10" class="edge"><title>node2005-&gt;node2016</title><path fill="none" stroke="#000" d="M499.5862,-294.432C538.508,-280.894 602.5227,-258.628 641.0273,-245.2351"/><polygon fill="#000" stroke="#000" points="642.407 -248.461 650.703 -241.87 640.108 -241.849 642.407 -248.461"/></g><g id="node12" class="node"><title>node1933</title><polygon fill="none" stroke="#000" points="706.328 -108 664.752 -90 706.328 -72 747.904 -90 706.328 -108"/><text x="706.328" y="-86.9" fill="#000" font-family="Times,serif" font-size="12" text-anchor="middle">oecore</text></g><g id="edge11" class="edge"><title>node2016-&gt;node1933</title><path fill="none" stroke="#000" d="M669.0015,-217.6333C664.9175,-199.256 660.4875,-168.766 668.3281,-144 672.1427,-131.9508 679.7196,-120.2645 687.1107,-110.8632"/><polygon fill="#000" stroke="#000" points="690.014 -112.847 693.733 -102.927 684.639 -108.363 690.014 -112.847"/></g><g id="node13" class="node"><title>node2017</title><polygon fill="none" stroke="#000" points="735.828 -180 676.828 -180 676.828 -144 735.828 -144 735.828 -180"/><text x="706.328" y="-158.9" fill="#000" font-family="Times,serif" font-size="12" text-anchor="middle">oelibasm</text></g><g id="edge13" class="edge"><title>node2016-&gt;node2017</title><path fill="none" stroke="#000" stroke-dasharray="5 2" d="M680.1657,-219.0816C684.0857,-210.5289 689.1291,-199.5251 693.74,-189.4649"/><polygon fill="#000" stroke="#000" points="696.993 -190.768 697.977 -180.22 690.629 -187.852 696.993 -190.768"/></g><g id="node14" class="node"><title>node1990</title><polygon fill="none" stroke="#000" points="620.328 -180 530.328 -180 530.328 -144 620.328 -144 620.328 -180"/><text x="575.328" y="-158.9" fill="#000" font-family="Times,serif" font-size="12" text-anchor="middle">oelibc_includes</text></g><g id="edge14" class="edge"><title>node2016-&gt;node1990</title><path fill="none" stroke="#000" d="M658.0156,-222.75C644.813,-213.0502 625.2864,-198.7041 608.5235,-186.3885"/><polygon fill="#000" stroke="#000" points="610.189 -183.269 600.058 -180.169 606.044 -188.91 610.189 -183.269"/></g><g id="node15" class="node"><title>node2035</title><polygon fill="none" stroke="#000" points="913.328 -180 862.1 -162 913.328 -144 964.556 -162 913.328 -180"/><text x="913.328" y="-158.9" fill="#000" font-family="Times,serif" font-size="12" text-anchor="middle">oesyscall</text></g><g id="edge15" class="edge"><title>node2016-&gt;node2035</title><path fill="none" stroke="#000" d="M697.2176,-226.8331C739.0356,-214.2878 825.7926,-188.2606 875.7301,-173.2794"/><polygon fill="#000" stroke="#000" points="876.928 -176.574 885.5 -170.348 874.916 -169.869 876.928 -176.574"/></g><g id="edge12" class="edge"><title>node1933-&gt;node29</title><path fill="none" stroke="#000" d="M679.5496,-83.4196C629.6345,-71.1538 521.828,-44.6621 459.8029,-29.4204"/><polygon fill="#000" stroke="#000" points="460.434 -25.971 449.888 -26.984 458.763 -32.769 460.434 -25.971"/></g><g id="edge16" class="edge"><title>node2035-&gt;node1933</title><path fill="none" stroke="#000" d="M887.5299,-153.0267C849.9836,-139.9671 780.2876,-115.725 739.1388,-101.4124"/><polygon fill="#000" stroke="#000" points="740.171 -98.066 729.577 -98.086 737.872 -104.677 740.171 -98.066"/></g><g id="node16" class="node"><title>node2104</title><polygon fill="none" stroke="#000" points="444.328 -108 382.328 -108 382.328 -72 444.328 -72 444.328 -108"/><text x="413.328" y="-86.9" fill="#000" font-family="Times,serif" font-size="12" text-anchor="middle">oe_ptrace</text></g><g id="edge17" class="edge"><title>node2104-&gt;node2167</title><path fill="none" stroke="#000" d="M388.3462,-71.8314C373.8854,-61.3144 355.6897,-48.0812 340.958,-37.3672"/><polygon fill="#000" stroke="#000" points="342.885 -34.441 332.739 -31.39 338.768 -40.102 342.885 -34.441"/></g><g id="edge18" class="edge"><title>node2104-&gt;node29</title><path fill="none" stroke="#000" d="M413.3281,-71.8314C413.3281,-64.131 413.3281,-54.9743 413.3281,-46.4166"/><polygon fill="#000" stroke="#000" points="416.828 -46.413 413.328 -36.413 409.828 -46.413 416.828 -46.413"/></g><g id="node17" class="node"><title>node139</title><polygon fill="none" stroke="#000" points="167.811 -167.562 133.328 -180 98.845 -167.562 98.877 -147.438 167.779 -147.438 167.811 -167.562"/><text x="133.328" y="-158.9" fill="#000" font-family="Times,serif" font-size="12" text-anchor="middle">oecert</text></g><g id="edge19" class="edge"><title>node139-&gt;node21</title><path fill="none" stroke="#000" d="M141.8274,-147.4297C147.5202,-137.6706 155.1401,-124.608 161.6742,-113.4067"/><polygon fill="#000" stroke="#000" points="164.826 -114.95 166.841 -104.549 158.779 -111.423 164.826 -114.95"/></g><g id="node18" class="node"><title>node1102</title><polygon fill="none" stroke="#000" points="843.328 -324 801.752 -306 843.328 -288 884.904 -306 843.328 -324"/><text x="843.328" y="-302.9" fill="#000" font-family="Times,serif" font-size="12" text-anchor="middle">oecpio</text></g><g id="edge21" class="edge"><title>node1102-&gt;node2016</title><path fill="none" stroke="#000" stroke-dasharray="5 2" d="M822.1412,-297.0267C792.2485,-284.3663 737.5418,-261.1964 703.4368,-246.7519"/><polygon fill="#000" stroke="#000" points="704.556 -243.425 693.983 -242.748 701.826 -249.871 704.556 -243.425"/></g><g id="edge20" class="edge"><title>node1102-&gt;node1933</title><path fill="none" stroke="#000" stroke-dasharray="5 2" d="M826.9852,-294.8878C813.586,-285.0225 794.9912,-269.489 783.3281,-252 755.0961,-209.6657 768.9114,-189.0895 745.3281,-144 739.419,-132.7023 731.3662,-121.1202 724.1121,-111.594"/><polygon fill="#000" stroke="#000" points="726.683 -109.201 717.759 -103.491 721.174 -113.52 726.683 -109.201"/></g><g id="node19" class="node"><title>node1940</title><polygon fill="none" stroke="#000" points="466.328 -612 393.072 -594 466.328 -576 539.584 -594 466.328 -612"/><text x="466.328" y="-590.9" fill="#000" font-family="Times,serif" font-size="12" text-anchor="middle">oecryptombed</text></g><g id="edge22" class="edge"><title>node1940-&gt;node2007</title><path fill="none" stroke="#000" d="M466.3281,-575.8314C466.3281,-568.131 466.3281,-558.9743 466.3281,-550.4166"/><polygon fill="#000" stroke="#000" points="469.828 -550.413 466.328 -540.413 462.828 -550.413 469.828 -550.413"/></g><g id="node20" class="node"><title>node1919</title><polygon fill="none" stroke="#000" points="466.328 -684 410.394 -666 466.328 -648 522.262 -666 466.328 -684"/><text x="466.328" y="-662.9" fill="#000" font-family="Times,serif" font-size="12" text-anchor="middle">oeenclave</text></g><g id="edge23" class="edge"><title>node1919-&gt;node1940</title><path fill="none" stroke="#000" d="M466.3281,-647.8314C466.3281,-640.131 466.3281,-630.9743 466.3281,-622.4166"/><polygon fill="#000" stroke="#000" points="469.828 -622.413 466.328 -612.413 462.828 -622.413 469.828 -622.413"/></g><g id="node21" class="node"><title>node23</title><polygon fill="none" stroke="#000" points="250.828 -180 185.828 -180 185.828 -144 250.828 -144 250.828 -180"/><text x="218.328" y="-158.9" fill="#000" font-family="Times,serif" font-size="12" text-anchor="middle">oehostapp</text></g><g id="edge24" class="edge"><title>node23-&gt;node21</title><path fill="none" stroke="#000" stroke-dasharray="1 5" d="M207.4774,-143.8314C201.9152,-134.518 195.0809,-123.0744 189.1458,-113.1367"/><polygon fill="#000" stroke="#000" points="192.143 -111.329 184.01 -104.538 186.133 -114.918 192.143 -111.329"/></g><g id="node22" class="node"><title>node2086</title><polygon fill="none" stroke="#000" points="1274.328 -252 1212.706 -234 1274.328 -216 1335.95 -234 1274.328 -252"/><text x="1274.328" y="-230.9" fill="#000" font-family="Times,serif" font-size="12" text-anchor="middle">oehostepoll</text></g><g id="edge25" class="edge"><title>node2086-&gt;node2035</title><path fill="none" stroke="#000" d="M1241.914,-225.3162C1229.8416,-222.2051 1215.9968,-218.7824 1203.3281,-216 1117.1542,-197.0739 1015.63,-179.1656 958.4416,-169.4764"/><polygon fill="#000" stroke="#000" points="958.736 -165.977 948.293 -167.764 957.571 -172.879 958.736 -165.977"/></g><g id="node23" class="node"><title>node2056</title><polygon fill="none" stroke="#000" points="841.328 -252 792.823 -234 841.328 -216 889.833 -234 841.328 -252"/><text x="841.328" y="-230.9" fill="#000" font-family="Times,serif" font-size="12" text-anchor="middle">oehostfs</text></g><g id="edge26" class="edge"><title>node2056-&gt;node2035</title><path fill="none" stroke="#000" d="M854.534,-220.7941C865.1578,-210.1703 880.2807,-195.0474 892.5283,-182.7998"/><polygon fill="#000" stroke="#000" points="895.12 -185.157 899.717 -175.611 890.171 -180.208 895.12 -185.157"/></g><g id="node24" class="node"><title>node2066</title><polygon fill="none" stroke="#000" points="982.328 -252 908.331 -234 982.328 -216 1056.325 -234 982.328 -252"/><text x="982.328" y="-230.9" fill="#000" font-family="Times,serif" font-size="12" text-anchor="middle">oehostresolver</text></g><g id="edge27" class="edge"><title>node2066-&gt;node2035</title><path fill="none" stroke="#000" d="M968.0312,-219.0816C958.153,-208.7738 944.8627,-194.9057 933.8558,-183.4202"/><polygon fill="#000" stroke="#000" points="936.116 -180.72 926.67 -175.922 931.062 -185.564 936.116 -180.72"/></g><g id="node25" class="node"><title>node2076</title><polygon fill="none" stroke="#000" points="1134.328 -252 1074.189 -234 1134.328 -216 1194.467 -234 1134.328 -252"/><text x="1134.328" y="-230.9" fill="#000" font-family="Times,serif" font-size="12" text-anchor="middle">oehostsock</text></g><g id="edge28" class="edge"><title>node2076-&gt;node2035</title><path fill="none" stroke="#000" d="M1105.4362,-224.5873C1065.4912,-211.5735 993.3997,-188.0867 949.7938,-173.8802"/><polygon fill="#000" stroke="#000" points="950.743 -170.509 940.151 -170.739 948.575 -177.164 950.743 -170.509"/></g><g id="node26" class="node"><title>node22</title><polygon fill="none" stroke="#000" points="299.328 -108 234.242 -90 299.328 -72 364.414 -90 299.328 -108"/><text x="299.328" y="-86.9" fill="#000" font-family="Times,serif" font-size="12" text-anchor="middle">oehostverify</text></g><g id="edge29" class="edge"><title>node22-&gt;node2166</title><path fill="none" stroke="#000" stroke-dasharray="5 2" d="M287.1033,-75.0816C279.3032,-65.5628 269.0152,-53.008 260.0742,-42.097"/><polygon fill="#000" stroke="#000" points="262.608 -39.668 253.563 -34.151 257.194 -44.104 262.608 -39.668"/></g><g id="edge30" class="edge"><title>node22-&gt;node2167</title><path fill="none" stroke="#000" stroke-dasharray="5 2" d="M302.8829,-72.937C304.5698,-64.8397 306.629,-54.9555 308.5334,-45.8147"/><polygon fill="#000" stroke="#000" points="311.976 -46.449 310.589 -35.945 305.123 -45.021 311.976 -46.449"/></g><g id="edge31" class="edge"><title>node22-&gt;node29</title><path fill="none" stroke="#000" d="M319.1854,-77.4586C334.8255,-67.5806 357.0738,-53.529 376.0154,-41.5659"/><polygon fill="#000" stroke="#000" points="378.141 -44.363 384.727 -36.064 374.403 -38.445 378.141 -44.363"/></g><g id="node27" class="node"><title>node2026</title><polygon fill="none" stroke="#000" points="673.328 -396 623.583 -378 673.328 -360 723.073 -378 673.328 -396"/><text x="673.328" y="-374.9" fill="#000" font-family="Times,serif" font-size="12" text-anchor="middle">oelibcxx</text></g><g id="node28" class="node"><title>node1963</title><polygon fill="none" stroke="#000" points="628.328 -324 574.328 -324 574.328 -288 628.328 -288 628.328 -324"/><text x="601.328" y="-302.9" fill="#000" font-family="Times,serif" font-size="12" text-anchor="middle">libcxx</text></g><g id="edge32" class="edge"><title>node2026-&gt;node1963</title><path fill="none" stroke="#000" d="M659.7854,-364.4574C650.429,-355.1009 637.7028,-342.3747 626.5132,-331.1851"/><polygon fill="#000" stroke="#000" points="628.979 -328.701 619.433 -324.105 624.029 -333.651 628.979 -328.701"/></g><g id="node29" class="node"><title>node1970</title><polygon fill="none" stroke="#000" points="700.328 -324 646.328 -324 646.328 -288 700.328 -288 700.328 -324"/><text x="673.328" y="-302.9" fill="#000" font-family="Times,serif" font-size="12" text-anchor="middle">libcxxrt</text></g><g id="edge34" class="edge"><title>node2026-&gt;node1970</title><path fill="none" stroke="#000" d="M673.3281,-359.8314C673.3281,-352.131 673.3281,-342.9743 673.3281,-334.4166"/><polygon fill="#000" stroke="#000" points="676.828 -334.413 673.328 -324.413 669.828 -334.413 676.828 -334.413"/></g><g id="node30" class="node"><title>node1980</title><polygon fill="none" stroke="#000" points="783.828 -324 718.828 -324 718.828 -288 783.828 -288 783.828 -324"/><text x="751.328" y="-302.9" fill="#000" font-family="Times,serif" font-size="12" text-anchor="middle">libunwind</text></g><g id="edge36" class="edge"><title>node2026-&gt;node1980</title><path fill="none" stroke="#000" d="M687.6345,-364.7941C697.9053,-355.3134 712.0576,-342.2496 724.4139,-330.8438"/><polygon fill="#000" stroke="#000" points="726.851 -333.358 731.825 -324.003 722.103 -328.214 726.851 -333.358"/></g><g id="edge33" class="edge"><title>node1963-&gt;node2016</title><path fill="none" stroke="#000" d="M619.4967,-287.8314C629.8217,-277.5064 642.7646,-264.5635 653.3715,-253.9566"/><polygon fill="#000" stroke="#000" points="656.015 -256.263 660.611 -246.717 651.065 -251.313 656.015 -256.263"/></g><g id="edge35" class="edge"><title>node1970-&gt;node2016</title><path fill="none" stroke="#000" d="M673.3281,-287.8314C673.3281,-280.131 673.3281,-270.9743 673.3281,-262.4166"/><polygon fill="#000" stroke="#000" points="676.828 -262.413 673.328 -252.413 669.828 -262.413 676.828 -262.413"/></g><g id="edge37" class="edge"><title>node1980-&gt;node2016</title><path fill="none" stroke="#000" d="M731.6454,-287.8314C720.2048,-277.2708 705.7971,-263.9714 694.165,-253.2341"/><polygon fill="#000" stroke="#000" points="696.348 -250.486 686.626 -246.275 691.6 -255.63 696.348 -250.486"/></g><g id="node31" class="node"><title>node1899</title><polygon fill="none" stroke="#000" points="606.788 -671.562 573.328 -684 539.868 -671.562 539.899 -651.438 606.757 -651.438 606.788 -671.562"/><text x="573.328" y="-662.9" fill="#000" font-family="Times,serif" font-size="12" text-anchor="middle">oesgx</text></g><g id="node32" class="node"><title>node1909</title><polygon fill="none" stroke="#000" points="339.855 -167.562 304.328 -180 268.801 -167.562 268.834 -147.438 339.822 -147.438 339.855 -167.562"/><text x="304.328" y="-158.9" fill="#000" font-family="Times,serif" font-size="12" text-anchor="middle">oesign</text></g><g id="edge38" class="edge"><title>node1909-&gt;node21</title><path fill="none" stroke="#000" d="M278.223,-147.4297C256.1918,-135.1332 224.7641,-117.5922 202.45,-105.1378"/><polygon fill="#000" stroke="#000" points="203.936 -101.959 193.499 -100.142 200.525 -108.072 203.936 -101.959"/></g></g></svg>